HIERARCHY
ROOT Hips
{
    OFFSET 0.000000 0.000000 0.000000
    CHANNELS 6 Xposition Yposition Zposition Zrotation Xrotation Yrotation
    JOINT Spine
    {
        OFFSET -0.000000 7.925200 0.000000
        CHANNELS 3 Zrotation Xrotation Yrotation
        JOINT Spine1
        {
            OFFSET -0.000000 23.364719 0.000000
            CHANNELS 3 Zrotation Xrotation Yrotation
            JOINT Neck
            {
                OFFSET -0.000000 23.268766 2.115342
                CHANNELS 3 Zrotation Xrotation Yrotation
                JOINT Head
                {
                    OFFSET -0.000000 13.530829 -1.932976
                    CHANNELS 3 Zrotation Xrotation Yrotation
                    End Site
                    {
                        OFFSET -0.000000 24.162195 0.000000
                    }
                }
            }
            JOINT LeftShoulder
            {
                OFFSET 3.858291 22.792089 -0.033814
                CHANNELS 3 Zrotation Xrotation Yrotation
                JOINT LeftArm
                {
                    OFFSET 7.057024 0.000000 0.000000
                    CHANNELS 3 Zrotation Xrotation Yrotation
                    JOINT LeftForeArm
                    {
                        OFFSET 34.734173 0.000000 0.000000
                        CHANNELS 3 Zrotation Xrotation Yrotation
                        JOINT LeftHand
                        {
                            OFFSET 23.943203 0.000000 0.000000
                            CHANNELS 3 Zrotation Xrotation Yrotation
                            End Site
                            {
                                OFFSET 14.497317 0.000000 0.000000
                            }
                        }
                    }
                }
            }
            JOINT RightShoulder
            {
                OFFSET -3.868823 22.792089 -0.033814
                CHANNELS 3 Zrotation Xrotation Yrotation
                JOINT RightArm
                {
                    OFFSET -7.057024 0.000000 0.000000
                    CHANNELS 3 Zrotation Xrotation Yrotation
                    JOINT RightForeArm
                    {
                        OFFSET -34.734173 0.000000 0.000000
                        CHANNELS 3 Zrotation Xrotation Yrotation
                        JOINT RightHand
                        {
                            OFFSET -23.943203 0.000000 0.000000
                            CHANNELS 3 Zrotation Xrotation Yrotation
                            End Site
                            {
                                OFFSET -14.497317 0.000000 0.000000
                            }
                        }
                    }
                }
            }
        }
    }
    JOINT LeftUpLeg
    {
        OFFSET 9.664878 0.000000 0.000000
        CHANNELS 3 Zrotation Xrotation Yrotation
        JOINT LeftLeg
        {
            OFFSET -0.000000 -38.728706 0.000000
            CHANNELS 3 Zrotation Xrotation Yrotation
            JOINT LeftFoot
            {
                OFFSET -0.000000 -40.242161 0.000000
                CHANNELS 3 Zrotation Xrotation Yrotation
                JOINT LeftToeBase
                {
                    OFFSET -0.000000 -6.282171 14.497317
                    CHANNELS 3 Zrotation Xrotation Yrotation
                    End Site
                    {
                        OFFSET -0.000000 0.000000 3.865951
                    }
                }
            }
        }
    }
    JOINT RightUpLeg
    {
        OFFSET -9.664878 0.000000 0.000000
        CHANNELS 3 Zrotation Xrotation Yrotation
        JOINT RightLeg
        {
            OFFSET -0.000000 -38.728706 0.000000
            CHANNELS 3 Zrotation Xrotation Yrotation
            JOINT RightFoot
            {
                OFFSET -0.000000 -40.242161 0.000000
                CHANNELS 3 Zrotation Xrotation Yrotation
                JOINT RightToeBase
                {
                    OFFSET -0.000000 -6.282171 14.497317
                    CHANNELS 3 Zrotation Xrotation Yrotation
                    End Site
                    {
                        OFFSET -0.000000 0.000000 3.865951
                    }
                }
            }
        }
    }
}
MOTION
Frames:    14
Frame Time:    0.008333
123.510216    89.227547    1.565050    -2.633957    1.563869    88.099541    -0.834155    -10.123739    1.307737    2.620133    8.351351    1.190279    -4.341252    15.249591    1.197204    1.199927    0.407617    1.454877    -2.374567    2.034427    2.945219    -40.164265    0.993209    -12.931826    62.793076    -57.279991    -75.568184    33.359539    -5.224758    20.056456    1.217927    8.425849    2.735150    26.224194    63.409389    37.747746    -0.851037    -12.597485    17.414789    5.332879    -12.322896    3.234067    -0.717764    0.916671    -0.922643    -1.386279    1.622399    -1.860466    -1.481750    -3.179315    11.169522    0.000000    0.000000    0.000000    -1.367539    -1.880826    -0.290809    -0.936738    6.352745    1.408707    1.390642    -5.775264    -12.190144    0.000000    0.000000    0.000000    
123.519646    89.226952    1.555222    -2.626426    1.570851    88.118042    -0.874726    -10.139273    1.325986    2.665291    8.387075    1.208139    -4.247056    15.284682    1.223392    0.945308    0.308569    1.445095    -2.389453    2.043830    2.911558    -39.857826    1.441543    -12.919856    62.598434    -57.434189    -76.524475    32.563301    -5.043969    18.983332    1.200390    8.397418    2.681400    26.202694    63.418686    37.753239    -0.825346    -12.578909    17.398777    5.317492    -12.308778    3.232377    -0.730751    0.936489    -0.955392    -1.389620    1.603987    -1.849665    -1.461239    -3.166531    11.172777    0.000000    0.000000    0.000000    -1.384387    -1.860672    -0.290908    -0.926819    6.347127    1.383804    1.392476    -5.792865    -12.201381    0.000000    0.000000    0.000000    
123.523582    89.227631    1.550926    -2.632490    1.556819    88.135498    -0.872056    -10.155313    1.339426    2.666259    8.406153    1.220957    -4.232151    15.209819    1.249397    0.827411    0.392002    1.457912    -2.368464    2.073711    2.894423    -39.572388    1.947358    -12.910338    62.336769    -57.670681    -77.463295    31.748024    -5.188879    17.625237    1.194710    8.367949    2.657318    26.229990    63.409679    37.717739    -0.799910    -12.548452    17.379025    5.372493    -12.279492    3.258863    -0.714919    0.930294    -0.969166    -1.401220    1.606608    -1.847904    -1.437999    -3.170405    11.171538    0.000000    0.000000    0.000000    -1.367087    -1.860815    -0.286116    -0.934974    6.342298    1.337544    1.435008    -5.784416    -12.187661    0.000000    0.000000    0.000000    
123.527550    89.228210    1.541228    -2.633965    1.560015    88.140137    -0.869815    -10.149016    1.353183    2.653909    8.390690    1.235711    -4.309630    15.226271    1.284851    0.843304    0.367215    1.497346    -2.379705    2.099496    2.890090    -39.213947    2.406083    -12.924830    61.313087    -57.846012    -79.183212    30.723972    -5.229350    16.552027    1.201582    8.380298    2.648119    26.217617    63.389671    37.713928    -0.794484    -12.531839    17.349728    5.407644    -12.261977    3.278949    -0.729659    0.932094    -0.970812    -1.393118    1.603607    -1.843996    -1.434952    -3.170467    11.165088    0.000000    0.000000    0.000000    -1.379932    -1.851588    -0.214410    -0.925936    6.333941    1.267537    1.415664    -5.780331    -12.180676    0.000000    0.000000    0.000000    
123.532951    89.225975    1.532509    -2.633226    1.557603    88.155174    -0.890353    -10.160925    1.370298    2.687658    8.412247    1.251807    -4.308622    15.272139    1.315678    0.717547    0.260725    1.510590    -2.376273    2.119381    2.863210    -38.892860    2.840471    -12.980296    60.212482    -57.988636    -80.972984    30.112463    -5.154455    15.520401    1.174855    8.363802    2.597862    26.167336    63.404739    37.762066    -0.804572    -12.542227    17.332518    5.484510    -12.267407    3.309541    -0.732707    0.931037    -0.977484    -1.390343    1.613508    -1.859530    -1.440218    -3.181472    11.167602    0.000000    0.000000    0.000000    -1.385263    -1.842910    -0.222577    -0.922319    6.325573    1.272866    1.432003    -5.786891    -12.195069    0.000000    0.000000    0.000000    
123.536942    89.226303    1.524730    -2.634878    1.556207    88.169182    -0.871604    -10.174920    1.381349    2.643445    8.430641    1.264093    -4.343893    15.255378    1.350644    0.694468    0.281583    1.544660    -2.312937    2.130798    2.822958    -38.572613    3.276281    -12.988470    59.099918    -58.051872    -82.716202    29.457291    -5.109031    14.167192    1.215675    8.353611    2.600985    26.184763    63.373318    37.710316    -0.804474    -12.518394    17.304615    5.572657    -12.238594    3.365657    -0.738161    0.935797    -0.988679    -1.385912    1.603603    -1.856429    -1.417676    -3.176827    11.159804    0.000000    0.000000    0.000000    -1.391516    -1.831210    -0.222969    -0.917979    6.310828    1.262373    1.425771    -5.783996    -12.208848    0.000000    0.000000    0.000000    
123.541702    89.227516    1.516392    -2.635754    1.553663    88.173958    -0.891310    -10.172249    1.395825    2.678161    8.418063    1.278026    -4.392631    15.232613    1.367967    0.660470    0.295681    1.559192    -2.293178    2.063254    2.891550    -38.184235    4.013639    -13.073865    58.194576    -58.137428    -84.223122    29.079754    -4.961028    13.214581    1.195612    8.372591    2.575104    26.213287    63.322342    37.683521    -0.824670    -12.476338    17.284943    5.631327    -12.190694    3.391601    -0.741356    0.939721    -1.007307    -1.383837    1.603326    -1.854059    -1.429459    -3.178667    11.166863    0.000000    0.000000    0.000000    -1.397255    -1.841726    -0.293315    -0.918922    6.335685    1.339953    1.425126    -5.780573    -12.210790    0.000000    0.000000    0.000000    
123.544464    89.228653    1.511673    -2.639258    1.544801    88.193008    -0.932757    -10.174270    1.398742    2.762683    8.413742    1.278551    -4.446795    15.204395    1.417369    0.562030    0.331559    1.598396    -2.374280    2.175075    2.798867    -37.608456    4.652202    -13.222610    57.448490    -58.260330    -85.558403    29.222605    -4.687719    12.713308    1.133041    8.372808    2.553193    26.186918    63.320400    37.729614    -0.851739    -12.459868    17.253489    5.662837    -12.168188    3.418835    -0.732875    0.938883    -1.019928    -1.391003    1.596032    -1.846655    -1.417169    -3.177786    11.155986    0.000000    0.000000    0.000000    -1.390344    -1.837665    -0.307314    -0.917213    6.330485    1.318824    1.415842    -5.770447    -12.206196    0.000000    0.000000    0.000000    
123.547318    89.226555    1.503855    -2.637103    1.548722    88.188797    -0.932328    -10.179006    1.420902    2.747653    8.422526    1.301575    -4.453666    15.241543    1.470220    0.447762    0.294854    1.636025    -2.335681    2.179362    2.743882    -37.145790    5.589525    -13.197181    57.067188    -58.463242    -86.518105    28.861216    -4.662645    11.773020    1.146795    8.362327    2.550883    26.089975    63.372757    37.794167    -0.879575    -12.500305    17.255638    5.625637    -12.207691    3.375375    -0.742032    0.948880    -1.030375    -1.390934    1.583561    -1.855908    -1.410339    -3.170604    11.179294    0.000000    0.000000    0.000000    -1.399089    -1.834145    -0.302182    -0.921855    6.332846    1.324373    1.436770    -5.787843    -12.211528    0.000000    0.000000    0.000000    
123.550072    89.226540    1.493602    -2.643667    1.558522    88.195061    -0.937115    -10.186651    1.422916    2.746921    8.416304    1.304267    -4.535565    15.258478    1.506686    0.413322    0.278970    1.669271    -2.329561    2.206541    2.741149    -36.755993    5.949354    -13.313816    55.881824    -58.343876    -88.279594    27.748884    -4.389353    10.540858    1.078122    8.362330    2.596925    26.212679    63.325012    37.731525    -0.866326    -12.474061    17.231609    5.582958    -12.184712    3.377432    -0.763187    0.947991    -1.038283    -1.379483    1.574750    -1.836409    -1.419000    -3.168966    11.157345    0.000000    0.000000    0.000000    -1.419783    -1.825946    -0.237224    -0.906420    6.306116    1.229921    1.423242    -5.775946    -12.180625    0.000000    0.000000    0.000000    
123.549995    89.227203    1.491486    -2.647341    1.541455    88.197800    -0.876152    -10.174822    1.447969    2.614330    8.389780    1.334184    -4.474954    15.277893    1.535083    0.371896    0.269553    1.691658    -2.171931    2.237623    2.700363    -36.384460    6.543138    -13.396286    54.535748    -58.260616    -90.155769    27.333950    -4.128000    9.768526    1.228625    8.330054    2.601078    26.180023    63.283108    37.620300    -0.719072    -12.439647    17.350391    5.432192    -12.178853    3.308383    -0.739614    0.939131    -1.038305    -1.396254    1.585632    -1.849934    -1.422012    -3.180254    11.170910    0.000000    0.000000    0.000000    -1.395021    -1.848558    -0.298852    -0.930700    6.340100    1.275304    1.452969    -5.785659    -12.169950    0.000000    0.000000    0.000000    
123.541176    89.227180    1.482171    -2.646777    1.540232    88.284340    -0.898916    -10.166621    1.422803    2.631259    8.402839    1.309430    -4.502675    15.228605    1.566945    0.304844    0.317154    1.717592    -2.108319    2.260057    2.664989    -35.868156    7.647643    -13.432781    54.558407    -58.537163    -90.611954    26.233185    -4.316927    8.702874    1.205666    8.293859    2.569084    26.391665    62.918175    37.379269    -0.279515    -12.200733    17.565884    5.079497    -12.020115    3.185698    -0.747274    0.904003    -1.122228    -1.387571    1.627888    -1.844600    -1.394741    -3.186738    11.158530    0.000000    0.000000    0.000000    -1.401135    -1.834008    -0.407172    -0.935910    6.320397    1.285951    1.462021    -5.780197    -12.164730    0.000000    0.000000    0.000000    
123.544907    89.229691    1.476918    -2.651068    1.536447    88.284767    -0.902291    -10.155844    1.425712    2.652305    8.364362    1.311918    -4.570662    15.260682    1.607115    0.232360    0.317938    1.748524    -2.107605    2.297339    2.644418    -35.404144    8.202517    -13.540715    52.844105    -58.430069    -92.778809    25.261166    -4.321692    7.857437    1.238547    8.322759    2.549991    26.252676    62.894718    37.474651    -0.305840    -12.146755    17.505110    5.246422    -11.951339    3.328312    -0.741058    0.907268    -1.152908    -1.399067    1.615827    -1.828809    -1.401493    -3.176219    11.173514    0.000000    0.000000    0.000000    -1.401924    -1.832051    -0.377632    -0.925422    6.316092    1.241275    1.459803    -5.774455    -12.156576    0.000000    0.000000    0.000000    
123.549393    89.227966    1.469622    -2.647574    1.541628    88.285942    -0.927358    -10.178207    1.425185    2.716865    8.408855    1.307999    -4.731801    15.266734    1.637641    0.250214    0.278204    1.784115    -2.133924    2.304187    2.628230    -34.871750    8.900090    -13.667219    51.178371    -58.372425    -94.828674    24.491886    -4.557253    6.910882    1.144753    8.337326    2.537302    26.038998    63.159122    37.818459    -0.744573    -12.383259    17.282509    5.554221    -12.107827    3.472198    -0.755042    0.912543    -1.138145    -1.390604    1.615590    -1.841231    -1.397022    -3.176573    11.168393    0.000000    0.000000    0.000000    -1.411419    -1.822002    -0.391219    -0.929862    6.314185    1.305756    1.451013    -5.788104    -12.209858    0.000000    0.000000    0.000000    
